<svg id="Capa_1" enable-background="new 0 0 511.999 511.999" viewBox="0 0 511.999 511.999" xmlns="http://www.w3.org/2000/svg"><g><g><path d="m397.477 88.107s-17.073-63.438-62.124-77.422-28.09 22.586-28.09 22.586-72.651-10.422-144.181 14.531-18.265 49.891-18.265 49.891-63.6 25.148-92.22 56.948 9.485 41.842 9.485 41.842-53.619 81.553-53.619 163.354 67.984 68.699 67.984 68.699z" fill="#7acefa"/></g><g><path d="m277.67 87.35c-99.778 35.774-243.922 138.382-219.02 388.978 1.587 15.968 14.951 28.171 30.998 28.171h211.944c16.98 0 26.773-19.263 16.771-32.985-29.214-40.08-65.833-113.227-32.188-200.094z" fill="#efdfb4"/></g><g><path d="m286.175 271.419-8.505-184.069c-99.778 35.774-243.922 138.382-219.02 388.978 1.587 15.968 14.951 28.171 30.998 28.171h93.413c-16.047 0-29.411-12.203-30.998-28.171-9.193-92.507 4.652-164.844 30.796-221.1 4.272 11.267 9.799 22.091 16.541 32.297 17.855 27.028 43 48.032 72.714 60.739.263.112.511.246.752.388-.895-23.989 2.735-49.932 13.309-77.233z" fill="#e2cd9c"/></g><g><path d="m331.885 72.469c-15.733.602-30.726 4.157-44.448 10.118-5.387 2.34-11.639-.135-13.841-5.58-5.55-13.723-15.78-38.593-24.475-59.584-12.475-30.117-61.253 47.841-42.335 93.515 4.439 10.718 13.281 18.277 23.562 21.454-11.129 18.259-17.697 39.555-18.103 62.258-.935 52.386 30.48 97.544 75.596 116.837 17.077 7.303 28.176 24.055 28.176 42.628v.855c0 40.061 32.043 73.268 72.103 73.565 40.379.3 73.206-32.343 73.206-72.652v-158.957c.001-70.411-58.426-127.175-129.441-124.457z" fill="#fcf2d0"/></g><g><g><g><ellipse cx="357.277" cy="228.759" fill="#eda1ab" rx="29.355" ry="23.377"/></g></g><g><path d="m374.385 213.756c-4.143 0-7.5-3.357-7.5-7.5v-12c0-4.143 3.357-7.5 7.5-7.5s7.5 3.357 7.5 7.5v12c0 4.142-3.357 7.5-7.5 7.5z"/></g></g><g><path d="m386.158 334.97v-.805c0-18.699-11.327-35.377-28.512-42.747-45.032-19.312-76.384-64.404-75.48-116.713.738-42.676 23.249-80.395 56.924-102.302-2.386-.044-4.787-.026-7.205.066-15.733.602-30.726 4.157-44.448 10.118-5.387 2.34-11.639-.135-13.841-5.58-5.55-13.723-15.78-38.593-24.475-59.584-12.475-30.117-61.253 47.841-42.335 93.515 4.439 10.718 13.281 18.277 23.562 21.454-11.129 18.259-17.697 39.555-18.103 62.258-.935 52.386 30.48 97.544 75.596 116.837 17.077 7.303 28.176 24.056 28.176 42.628v.855c0 40.061 32.043 73.267 72.103 73.565 20.802.154 39.585-8.449 52.922-22.324-31.632-8.041-54.884-37.146-54.884-71.241z" fill="#efdfb4"/></g><g><path d="m379.237 154.484c-15.588-15.588-13.987-41.311 3.415-54.846l82.948-64.515c9.361-7.281 22.678-6.452 31.064 1.934 8.386 8.386 9.215 21.703 1.934 31.064l-64.516 82.949c-13.534 17.401-39.257 19.002-54.845 3.414z" fill="#f7ef87"/></g><g><path d="m397.33 114.317 99.334-77.26c-8.386-8.386-21.703-9.215-31.064-1.934l-82.949 64.516c-17.401 13.534-19.003 39.258-3.415 54.846 2.558 2.558 5.392 4.643 8.397 6.282-8.346-15.31-4.849-35.137 9.697-46.45z" fill="#efd176"/></g><g><path d="m445.613 136.244c-.009-.002-17.121-4.195-30.532-17.605-13.41-13.41-17.603-30.521-17.605-30.532l-14.825 11.531c-17.401 13.534-19.003 39.258-3.415 54.846 15.588 15.588 41.311 13.987 54.846-3.415z" fill="#efd176"/></g><g><path d="m480.128 91.867 18.47-23.747c7.281-9.361 6.452-22.678-1.934-31.064s-21.703-9.215-31.064-1.934l-23.747 18.47c.001.005 3.335 13.613 13.998 24.277 10.665 10.664 24.273 13.998 24.277 13.998z" fill="#efd176"/></g><g><path d="m397.33 114.317 8.848-6.882c-6.451-10.164-8.699-19.32-8.701-19.327l-14.825 11.531c-17.401 13.534-19.003 39.258-3.415 54.846 2.558 2.558 5.392 4.643 8.397 6.282-8.347-15.31-4.85-35.137 9.696-46.45z" fill="#e0bb5f"/></g><g><path d="m496.664 37.056c-8.386-8.386-21.703-9.215-31.064-1.934l-23.747 18.47c.001.005 2.332 9.504 9.317 18.849z" fill="#e0bb5f"/></g><path d="m501.967 31.754c-11.036-11.038-28.649-12.137-40.972-2.551l-59.741 46.465c-7.342-19.802-26.608-60.638-63.678-72.146-17.854-5.54-29.753-4.554-36.38 3.021-4.621 5.282-5.043 12.239-4.191 18.131-8.532-.681-21.439-1.33-37.159-.947-1.31-3.169-2.584-6.25-3.795-9.174-3.632-8.77-9.707-10.807-13.004-11.241-7.805-1.03-16.338 4.18-24.685 15.058-2.159 2.813-4.323 6.072-6.421 9.66-18.114 2.872-35.375 7.126-51.33 12.692-27.794 9.696-41.642 20.987-42.334 34.519-.455 8.894 5.022 16.039 10.812 21.052-8.036 3.636-19.038 8.917-30.792 15.454-3.62 2.014-4.922 6.58-2.909 10.2 1.371 2.466 3.927 3.855 6.561 3.855 1.233 0 2.484-.305 3.639-.946 21.987-12.229 41.791-20.109 41.988-20.188 2.783-1.102 4.646-3.753 4.737-6.745s-1.605-5.752-4.316-7.021c-5.279-2.472-15.022-9.378-14.74-14.896.121-2.354 2.805-10.835 32.294-21.123 12.031-4.196 24.865-7.619 38.292-10.219-8.536 21.251-12.867 47.703-3.986 69.144.415 1.001.87 1.977 1.351 2.937-49.138 31.713-87.186 73.472-113.138 124.195-26.207 51.223-39.512 110.942-39.749 178.103-21.475-7.034-32.357-26.907-32.357-59.205 0-78.53 51.862-158.437 52.385-159.233 1.32-2.008 1.583-4.531.733-6.778-.85-2.248-2.741-3.956-5.06-4.587-3.122-.85-12.44-4.653-14.242-10.778-1.736-5.902 3.605-13.482 8.393-18.801 5.629-6.255 13.238-12.777 22.614-19.385 3.386-2.387 4.196-7.065 1.81-10.451-2.385-3.387-7.064-4.193-10.451-1.811-10.292 7.254-18.744 14.524-25.122 21.611-10.716 11.907-14.621 23.063-11.606 33.159 2.603 8.718 9.67 14.146 15.621 17.293-13.428 22.537-50.076 90.413-50.076 159.761 0 53.878 28.357 70.066 47.538 74.846.359 13.83 1.251 27.96 2.685 42.385 1.979 19.913 18.514 34.93 38.461 34.93h211.945c10.691 0 20.343-5.918 25.188-15.444 4.846-9.528 3.943-20.816-2.356-29.459-24.577-33.718-51.279-86.594-42.492-150.026.981.448 1.967.887 2.961 1.312 14.352 6.138 23.625 20.164 23.625 35.732v.855c0 44.374 35.686 80.739 79.548 81.064.205.001.408.002.613.002 21.3 0 41.33-8.248 56.459-23.266 15.275-15.162 23.688-35.366 23.688-56.889v-158.954c0-20.83-4.946-41.442-14.333-59.884l50.024-64.316c9.584-12.322 8.487-29.936-2.55-40.972zm-51.419 51.419c5.743 5.743 12.193 9.604 17.435 12.094l-25.068 32.231c-5.438-2.031-14.699-6.33-22.53-14.162-7.789-7.789-12.122-17.149-14.15-22.538l32.211-25.053c2.491 5.252 6.344 11.669 12.102 17.428zm-63.293 22.385 6.688-5.201c2.978 6.755 7.975 15.725 15.835 23.585 7.848 7.848 16.84 12.851 23.59 15.83l-5.205 6.692c-5.131 6.597-12.857 10.678-21.199 11.197-8.332.53-16.513-2.571-22.423-8.481-5.91-5.909-9.002-14.083-8.482-22.424s4.6-16.067 11.196-21.198zm-81.056-64.863c2.709.39 5.42-.744 7.063-2.939s1.952-5.124.814-7.619c-1.947-4.27-3.493-11.555-1.586-13.721 1.276-1.451 7.061-2.783 20.639 1.433 26.898 8.349 43.234 37.385 51.143 55.841-16.669-6.415-34.586-9.407-52.674-8.714-16.33.625-32.194 4.236-47.148 10.733-1.035.449-1.919.217-2.355.039-.501-.205-1.177-.642-1.545-1.553-3.615-8.94-9.052-22.204-14.556-35.567 23.977-.198 40.027 2.041 40.205 2.067zm147.628 156.231v158.956c0 17.495-6.839 33.918-19.256 46.243-12.415 12.323-28.896 19.042-46.394 18.909-35.653-.264-64.659-29.9-64.659-66.064v-.855c0-21.582-12.846-41.021-32.727-49.523-26.274-11.236-47.507-31.646-59.788-57.469-1.778-3.741-6.251-5.33-9.994-3.553-3.741 1.779-5.331 6.254-3.552 9.994 11.091 23.322 28.661 42.722 50.436 56.037-11.813 70.77 17.483 129.39 44.408 166.331 3.001 4.117 3.415 9.285 1.107 13.823-2.307 4.536-6.725 7.244-11.817 7.244h-211.943c-12.204 0-22.322-9.205-23.535-21.412-19.559-196.823 66.553-297.015 143.973-346.717 2.865 2.779 6.092 5.178 9.619 7.116-9.447 18.063-14.594 38.126-14.958 58.529-.173 9.703.708 19.401 2.622 28.823.722 3.557 3.849 6.01 7.342 6.01.495-.001.997-.05 1.5-.152 4.059-.824 6.682-4.783 5.857-8.842-1.697-8.354-2.479-16.957-2.324-25.571.368-20.612 6.249-40.837 17.008-58.488 1.204-1.975 1.429-4.396.61-6.559s-2.59-3.827-4.8-4.511c-8.556-2.644-15.425-8.897-18.847-17.157-9.355-22.585.26-57.604 14.959-78.41 6.541-9.259 11.111-11.334 12.283-11.466.2.196.681.767 1.234 2.102 7.954 19.202 18.599 45.056 24.451 59.524 1.817 4.493 5.287 7.978 9.771 9.813 4.527 1.853 9.503 1.794 14.012-.164 13.24-5.752 27.286-8.948 41.747-9.503 17.702-.677 35.205 2.625 51.237 9.584l-5.363 4.171c-9.991 7.771-16.173 19.473-16.959 32.105-.787 12.634 3.896 25.013 12.846 33.964 8.302 8.302 19.552 12.931 31.221 12.931.911 0 1.827-.028 2.742-.085 12.633-.787 24.336-6.969 32.106-16.96l4.168-5.359c6.34 14.627 9.657 30.543 9.657 46.611zm38.851-133.41-15.2 19.542c-4.224-1.696-10.797-4.967-16.324-10.494-5.55-5.55-8.801-12.063-10.499-16.318l19.549-15.204c2.9-2.256 6.368-3.366 9.823-3.366 4.125 0 8.231 1.582 11.332 4.684 5.7 5.698 6.267 14.794 1.319 21.156z"/></g></svg>